<?xml version="1.0" standalone="no"?>
<!DOCTYPE svg PUBLIC "-//W3C//DTD SVG 20010904//EN"
 "http://www.w3.org/TR/2001/REC-SVG-20010904/DTD/svg10.dtd">
<svg version="1.0" xmlns="http://www.w3.org/2000/svg"
 width="1080.000000pt" height="1080.000000pt" viewBox="0 0 1080.000000 1080.000000"
 preserveAspectRatio="xMidYMid meet">

<g transform="translate(0.000000,1080.000000) scale(0.100000,-0.100000)"
fill="#000000" stroke="none">
<path d="M3510 6773 c-188 -20 -617 -166 -895 -304 -121 -61 -351 -212 -483
-319 -187 -151 -380 -368 -451 -507 -36 -73 -38 -91 -11 -143 25 -48 55 -70
98 -70 25 0 46 -10 79 -40 30 -26 55 -40 74 -40 74 0 89 99 24 160 -32 31 -32
42 10 128 49 103 107 184 199 280 129 135 219 202 474 354 l32 20 -10 -27 c-5
-14 -10 -101 -10 -193 0 -198 -13 -329 -35 -371 -18 -36 -64 -60 -170 -91
-125 -35 -167 -80 -134 -139 27 -48 73 -63 175 -57 50 3 98 8 108 12 15 6 17
3 13 -12 -6 -19 -29 -388 -43 -672 -4 -101 -10 -147 -20 -157 -13 -13 -65 -26
-238 -59 -98 -19 -228 -79 -267 -123 -39 -45 -39 -92 -1 -131 39 -40 89 -48
149 -23 26 11 61 22 77 26 15 3 30 14 33 23 6 24 92 55 110 40 9 -7 37 -9 77
-5 l63 6 6 -67 c8 -93 32 -156 73 -192 43 -37 91 -40 129 -7 33 28 35 71 6
128 -18 34 -23 60 -24 147 l-2 105 70 29 c39 16 194 78 345 138 692 272 849
364 892 523 37 139 -119 258 -447 341 -122 31 -476 92 -640 109 l-120 13 55
13 c66 16 278 118 410 196 290 172 565 406 631 535 61 119 40 238 -58 332 -76
74 -205 107 -353 91z m122 -184 c67 -14 104 -33 119 -60 34 -64 -135 -277
-316 -399 -29 -19 -79 -55 -111 -80 -71 -54 -292 -189 -389 -237 -38 -19 -77
-42 -86 -49 -13 -12 -12 4 9 98 13 62 27 133 29 158 3 25 12 54 19 65 8 11 14
36 14 57 0 95 -77 178 -167 178 l-38 0 55 31 c30 16 66 33 79 36 14 3 46 19
71 35 56 34 236 97 398 137 172 43 226 48 314 30z m-567 -1180 c322 -40 785
-171 785 -223 0 -20 -40 -51 -115 -89 -98 -48 -248 -107 -275 -107 -12 0 -36
-15 -54 -34 -30 -32 -191 -105 -481 -218 -55 -22 -117 -50 -137 -64 l-38 -24
0 22 c0 13 7 142 15 288 23 421 29 456 73 463 31 5 113 0 227 -14z"/>
<path d="M8760 6414 c-67 -38 -98 -72 -132 -144 -17 -36 -57 -101 -89 -146
-33 -44 -59 -86 -59 -92 0 -7 -4 -12 -10 -12 -5 0 -10 -5 -10 -11 0 -6 -13
-29 -28 -52 -68 -101 -75 -151 -26 -183 21 -14 31 -15 62 -5 44 13 67 33 147
126 89 104 234 252 288 293 57 43 77 80 77 137 0 47 -22 74 -82 100 -52 21
-86 19 -138 -11z"/>
<path d="M372 6025 c-40 -42 -72 -80 -72 -86 0 -19 163 -266 745 -1129 72
-107 225 -334 340 -505 115 -170 262 -387 326 -481 l117 -172 -1 -98 c-2 -96
-1 -102 36 -176 30 -62 48 -86 90 -118 91 -68 137 -84 257 -84 94 -1 111 2
162 26 31 14 76 44 100 65 l43 39 1180 -5 c649 -4 1324 -6 1500 -6 l319 0 13
70 c6 39 12 91 12 116 l1 46 -402 5 c-222 3 -923 7 -1559 8 l-1155 2 -27 -41
c-37 -56 -75 -89 -124 -107 -54 -21 -100 -14 -155 23 -88 60 -109 131 -64 228
28 63 27 69 -24 135 -15 19 -137 199 -272 400 -969 1444 -1293 1920 -1308
1920 -3 0 -39 -34 -78 -75z"/>
<path d="M7027 5800 c-46 -14 -57 -29 -57 -79 0 -65 17 -119 42 -132 50 -27
177 30 199 89 17 44 -5 101 -46 118 -38 15 -94 17 -138 4z"/>
<path d="M4343 5645 c-35 -15 -78 -64 -99 -113 -8 -20 -32 -59 -54 -86 -80
-105 -114 -227 -114 -411 0 -113 3 -138 23 -188 56 -141 173 -201 286 -146 39
19 142 142 172 206 79 170 108 430 64 569 -28 85 -39 98 -110 124 -31 12 -65
27 -76 34 -33 21 -60 24 -92 11z m96 -253 c18 -34 23 -120 11 -189 -12 -70
-119 -313 -138 -313 -20 0 -44 85 -44 152 0 104 51 245 120 336 28 37 37 39
51 14z"/>
<path d="M5774 5591 c-85 -62 -151 -151 -249 -331 -79 -145 -94 -171 -123
-202 -66 -72 -82 -5 -72 302 5 141 -6 178 -58 199 -77 32 -138 -24 -166 -151
-50 -225 -177 -518 -225 -518 -43 0 -18 312 33 420 46 97 29 168 -51 217 -45
27 -123 32 -143 8 -12 -15 -27 -89 -55 -265 -55 -363 -12 -504 174 -568 105
-37 182 26 277 223 24 50 44 82 44 72 0 -29 38 -128 57 -149 24 -27 65 -47
101 -50 29 -2 31 -4 37 -63 14 -122 57 -175 144 -175 54 0 84 13 119 52 17 18
49 53 72 78 l41 45 -6 -215 c-3 -118 -10 -303 -16 -411 -15 -267 1 -367 62
-400 27 -14 80 -4 113 22 29 23 66 88 66 116 0 10 11 62 24 117 l24 98 -23 34
c-25 36 -55 144 -58 209 -7 133 36 605 73 795 24 123 34 222 25 249 -3 12 -24
30 -46 41 -21 11 -39 24 -39 28 1 4 7 32 14 64 16 66 8 92 -39 119 -45 26 -86
23 -131 -10z m-14 -378 c0 -24 -207 -389 -216 -380 -9 9 30 128 63 188 62 114
153 229 153 192z"/>
<path d="M8265 5595 c-54 -27 -114 -107 -177 -234 -57 -116 -62 -130 -66 -206
-8 -142 30 -254 115 -339 80 -80 125 -101 213 -100 133 1 207 40 320 171 l45
51 5 -46 c8 -64 32 -106 74 -126 49 -23 76 -20 128 14 92 61 130 148 94 215
-10 18 -29 38 -42 44 -39 17 -124 13 -173 -9 l-43 -20 18 27 c49 75 65 145 40
176 -20 26 -69 37 -97 23 -13 -6 -39 -40 -58 -76 -36 -68 -184 -231 -233 -256
-29 -15 -78 -19 -78 -6 0 4 25 32 56 62 70 69 133 160 150 218 8 25 14 86 14
136 0 74 -5 100 -24 141 -29 63 -78 107 -151 134 -66 25 -90 26 -130 6z m84
-367 c-13 -29 -40 -80 -61 -113 -31 -49 -38 -55 -37 -35 0 40 22 91 70 164 49
75 63 67 28 -16z"/>
<path d="M9315 5592 c-68 -42 -140 -147 -205 -300 -27 -63 -31 -86 -32 -162
-1 -157 54 -277 167 -362 88 -67 196 -72 324 -17 107 46 300 298 309 404 5 65
-16 88 -79 83 -43 -3 -45 -5 -79 -69 -40 -75 -154 -207 -216 -250 -25 -17 -56
-29 -74 -29 l-32 0 74 80 c106 115 138 171 150 267 13 101 4 175 -29 235 -32
58 -76 93 -148 119 -68 24 -92 24 -130 1z m99 -338 c-16 -51 -54 -122 -86
-163 l-18 -24 0 27 c0 15 6 42 14 61 18 41 96 158 102 152 3 -2 -3 -26 -12
-53z"/>
<path d="M6572 5554 c-32 -22 -57 -77 -77 -169 -38 -172 -144 -434 -194 -479
-35 -31 -43 -10 -42 106 1 123 21 239 52 300 59 114 1 225 -123 236 -67 5 -83
-10 -97 -93 -6 -33 -18 -103 -27 -155 -25 -138 -25 -389 -1 -452 41 -105 202
-187 284 -144 48 24 100 92 154 199 27 54 51 93 53 85 21 -71 45 -119 76 -150
35 -36 41 -38 99 -38 72 0 105 15 149 64 l31 36 21 -47 c39 -88 88 -123 173
-123 62 0 100 23 120 73 l13 30 13 -42 c10 -36 19 -46 58 -63 87 -38 129 -12
203 127 47 88 182 305 190 305 3 0 3 -30 2 -66 -8 -143 38 -284 105 -325 65
-40 175 -26 203 26 19 36 1 78 -39 91 -19 6 -38 19 -44 29 -12 23 -11 242 3
364 14 122 4 161 -52 201 -52 38 -93 39 -141 3 -46 -35 -122 -122 -207 -237
-73 -98 -82 -95 -56 18 21 87 20 109 -4 155 -21 42 -36 51 -84 51 -44 0 -71
-32 -90 -101 -21 -84 -57 -319 -59 -394 -2 -53 -5 -64 -17 -59 -35 14 -51 16
-79 6 -29 -10 -31 -10 -37 25 -11 61 12 260 41 348 41 125 23 182 -67 210
-100 31 -126 3 -158 -176 -16 -92 -27 -125 -59 -178 -44 -73 -94 -127 -110
-117 -25 16 -33 91 -26 257 8 184 2 225 -42 259 -31 24 -80 26 -111 4z"/>
</g>
</svg>
